Coordinates
version=1
nRows=22
nColumns=24
inDegrees=yes

Units are S.I. units (second, meters, Newtons, ...)
Angles are in degrees.

endheader
time	pelvis_tilt	pelvis_list	pelvis_rotation	pelvis_tx	pelvis_ty	pelvis_tz	hip_flexion_r	hip_adduction_r	hip_rotation_r	knee_angle_r	ankle_angle_r	subtalar_angle_r	mtp_angle_r	hip_flexion_l	hip_adduction_l	hip_rotation_l	knee_angle_l	ankle_angle_l	subtalar_angle_l	mtp_angle_l	lumbar_extension	lumbar_bending	lumbar_rotation
      0.01000000	     65.27744096	      2.25735661	     -2.70042326	      0.54822177	      1.00158517	     -0.29534590	      5.85360336	    -11.05248796	     15.27364864	      4.55816123	    -22.44936369	      6.09510546	    -18.72987606	     -8.55673840	     -6.72852642	      2.12773721	    -52.93271892	     -2.65504418	      9.53843533	    -32.36417914	      0.00000000	      0.00000000	      0.00000000
      0.02000000	     64.15900902	      1.92425472	     -2.99197334	      0.54856767	      1.00111706	     -0.29526020	      7.14599072	    -10.59970971	     15.74579959	      4.48050155	    -22.59027770	      6.05398843	    -18.66935268	     -7.49195166	     -7.15361063	      1.54847346	    -52.96141888	     -2.63193705	      9.40428427	    -33.91399824	      0.00000000	      0.00000000	      0.00000000
      0.03000000	     63.72039538	      1.77813658	     -3.10153928	      0.54857710	      1.00083139	     -0.29508084	      7.69615522	    -10.41484991	     15.97823259	      4.42610056	    -22.63666884	      6.01978454	    -18.77746860	     -7.01535324	     -7.32919831	      1.28709713	    -53.09404584	     -2.43238369	      9.51011869	    -33.47655066	      0.00000000	      0.00000000	      0.00000000
      0.04000000	     63.74880455	      1.76202924	     -3.09325817	      0.54844240	      1.00075284	     -0.29491599	      7.71507328	    -10.41644979	     16.03142058	      4.40000708	    -22.61608723	      5.99247675	    -19.00859319	     -6.95085189	     -7.33459950	      1.24763865	    -53.28406432	     -2.13689713	      9.77615203	    -31.69578857	      0.00000000	      0.00000000	      0.00000000
      0.05000000	     64.00389330	      1.81932122	     -3.03357057	      0.54826233	      1.00081915	     -0.29487795	      7.44556902	    -10.51219754	     15.97478293	      4.40480615	    -22.56029318	      5.97218000	    -19.30817826	     -7.10605937	     -7.25683373	      1.32761187	    -53.48211873	     -1.83617116	     10.10593042	    -29.33590054	      0.00000000	      0.00000000	      0.00000000
      0.06000000	     64.28506423	      1.90325017	     -2.96948028	      0.54808587	      1.00092957	     -0.29499088	      7.10456311	    -10.62579587	     15.87061581	      4.43747432	    -22.49750763	      5.95855458	    -19.62398523	     -7.31987382	     -7.16438169	      1.44450887	    -53.64750627	     -1.60551504	     10.40804743	    -27.10774065	      0.00000000	      0.00000000	      0.00000000
      0.07000000	     64.46860427	      1.97638714	     -2.92123823	      0.54798599	      1.00101862	     -0.29515032	      6.84719724	    -10.71249079	     15.76509918	      4.48858706	    -22.44775317	      5.95024591	    -19.91301581	     -7.48382696	     -7.09471649	      1.54593015	    -53.75138728	     -1.48927469	     10.61165608	    -25.55448336	      0.00000000	      0.00000000	      0.00000000
      0.08000000	     64.51007087	      2.01543080	     -2.88991631	      0.54800484	      1.00105270	     -0.29522207	      6.74973739	    -10.75856216	     15.68533781	      4.54372483	    -22.42121287	      5.94503238	    -20.14502231	     -7.54649814	     -7.05816497	      1.60918746	    -53.77762599	     -1.49580764	     10.67533441	    -24.99139327	      0.00000000	      0.00000000	      0.00000000
      0.09000000	     64.42485940	      2.01930225	     -2.87180968	      0.54810492	      1.00101538	     -0.29518876	      6.81190855	    -10.76915206	     15.64102304	      4.58697148	    -22.41909706	      5.94059770	    -20.30336877	     -7.50519914	     -7.05081538	      1.63496488	    -53.72307476	     -1.60209375	     10.58965447	    -25.49277043	      0.00000000	      0.00000000	      0.00000000
      0.10000000	     64.26306246	      2.00580948	     -2.86699200	      0.54821295	      1.00093278	     -0.29513545	      6.97889152	    -10.75585226	     15.62897325	      4.60606678	    -22.43609116	      5.93523737	    -20.38392658	     -7.39006141	     -7.06422104	      1.63694689	    -53.59709764	     -1.76584592	     10.37472792	    -26.91775185	      0.00000000	      0.00000000	      0.00000000
      0.11000000	     64.08537663	      1.99513052	     -2.87717027	      0.54827642	      1.00087030	     -0.29510453	      7.17554725	    -10.73062697	     15.63888937	      4.59730311	    -22.46344868	      5.92809021	    -20.39269860	     -7.24826011	     -7.08794709	      1.63043769	    -53.42070901	     -1.94133291	     10.07395255	    -28.96520041	      0.00000000	      0.00000000	      0.00000000
      0.12000000	     63.94305579	      1.99571647	     -2.89993466	      0.54829156	      1.00086977	     -0.29505982	      7.33796606	    -10.70371535	     15.65884927	      4.56706683	    -22.49202791	      5.91908363	    -20.34284033	     -7.13021137	     -7.11075250	      1.62482763	    -53.22425788	     -2.09318238	      9.74466358	    -31.24629147	      0.00000000	      0.00000000	      0.00000000
      0.13000000	     63.86532495	      2.00330352	     -2.92754224	      0.54828542	      1.00090948	     -0.29497845	      7.43037461	    -10.68212775	     15.67922896	      4.52852859	    -22.51472500	      5.90885145	    -20.25158747	     -7.07579597	     -7.12417747	      1.62226847	    -53.04243136	     -2.20256890	      9.44657337	    -33.36223602	      0.00000000	      0.00000000	      0.00000000
      0.14000000	     63.85702593	      2.00891802	     -2.95117308	      0.54827630	      1.00094149	     -0.29489889	      7.44598954	    -10.66870242	     15.69436840	      4.49536977	    -22.52785850	      5.89860883	    -20.13740448	     -7.10145310	     -7.12611036	      1.62066762	    -52.90680141	     -2.26434280	      9.22985527	    -34.97466256	      0.00000000	      0.00000000	      0.00000000
      0.15000000	     63.90491515	      2.00684285	     -2.96598916	      0.54826778	      1.00094228	     -0.29487420	      7.39842856	    -10.66241156	     15.70231364	      4.47624006	    -22.53130786	      5.88987931	    -20.01755516	     -7.19371564	     -7.12096916	      1.61738100	    -52.83830759	     -2.27941983	      9.12560822	    -35.85805688	      0.00000000	      0.00000000	      0.00000000
      0.16000000	     63.98652549	      1.99738729	     -2.97240157	      0.54826322	      1.00091725	     -0.29491478	      7.31153008	    -10.65982619	     15.70359548	      4.47265354	    -22.52758420	      5.88408847	    -19.90625181	     -7.31507539	     -7.11609512	      1.61115718	    -52.84340608	     -2.24914970	      9.14122136	    -35.92737002	      0.00000000	      0.00000000	      0.00000000
      0.17000000	     64.07691025	      1.98471581	     -2.97331790	      0.54826572	      1.00088047	     -0.29498513	      7.21183395	    -10.65718028	     15.69992825	      4.48050327	    -22.52032313	      5.88216161	    -19.81350215	     -7.42086830	     -7.11696464	      1.60218864	    -52.91530267	     -2.17560641	      9.26159045	    -35.23881686	      0.00000000	      0.00000000	      0.00000000
      0.18000000	     64.15320960	      1.97313531	     -2.97081024	      0.54826958	      1.00084497	     -0.29503717	      7.12372967	    -10.65216508	     15.69328927	      4.49333025	    -22.51280210	      5.88429101	    -19.74470600	     -7.47792290	     -7.12451904	      1.59153397	    -53.03784621	     -2.06654635	      9.45510523	    -33.96683020	      0.00000000	      0.00000000	      0.00000000
      0.19000000	     64.19884854	      1.96492284	     -2.96523241	      0.54826467	      1.00082433	     -0.29504594	      7.06568558	    -10.64463629	     15.68545914	      4.50519673	    -22.50695595	      5.88996114	    -19.70094540	     -7.47512668	     -7.13590800	      1.58086478	    -53.18880906	     -1.94017380	      9.68199709	    -32.36390942	      0.00000000	      0.00000000	      0.00000000
      0.20000000	     64.20719764	      1.96036806	     -2.95658041	      0.54825168	      1.00082698	     -0.29502621	      7.04701423	    -10.63598679	     15.67790776	      4.51213131	    -22.50308682	      5.89818878	    -19.67979425	     -7.42271746	     -7.14708624	      1.57235972	    -53.34199086	     -1.82499276	      9.90252921	    -30.71203567	      0.00000000	      0.00000000	      0.00000000
      0.21000000	     64.18259558	      1.95893209	     -2.94592337	      0.54824463	      1.00084191	     -0.29501043	      7.06610936	    -10.62784613	     15.67183884	      4.51233057	    -22.50020656	      5.90784016	    -19.67641029	     -7.34405195	     -7.15490989	      1.56817452	    -53.47008756	     -1.75327285	     10.08334242	    -29.27442618	      0.00000000	      0.00000000	      0.00000000
      0.22000000	     64.13771716	      1.96024098	     -2.93558137	      0.54825554	      1.00084178	     -0.29501252	      7.11147806	    -10.62123360	     15.66820756	      4.50584920	    -22.49679446	      5.91788791	    -19.68468855	     -7.26569744	     -7.15783011	      1.56952064	    -53.54970305	     -1.75062896	     10.20136163	    -28.25513110	      0.00000000	      0.00000000	      0.00000000
